<svg xmlns="http://www.w3.org/2000/svg" width="28.93" height="28.93" viewBox="0 0 28.93 28.93">
  <g id="Group_10" data-name="Group 10" transform="translate(28.93 28.93) rotate(180)">
    <g id="Icon_ionic-ios-arrow-dropup" data-name="Icon ionic-ios-arrow-dropup" transform="translate(0)">
      <g id="Icon_ionic-ios-arrow-dropup-2" data-name="Icon ionic-ios-arrow-dropup" transform="translate(0 28.93) rotate(-90)">
        <path id="Path_7" data-name="Path 7" d="M.391,8.924a1.347,1.347,0,0,1,0-1.9L7.046.391A1.341,1.341,0,0,1,8.9.35l6.558,6.537a1.34,1.34,0,1,1-1.892,1.9L7.93,3.236l-5.64,5.7A1.341,1.341,0,0,1,.391,8.924Z" transform="translate(6.535 12.935)" fill="#d6e33b"/>
        <path id="Path_20" data-name="Path 20" d="M.391,8.924a1.347,1.347,0,0,1,0-1.9L7.046.391A1.341,1.341,0,0,1,8.9.35l6.558,6.537a1.34,1.34,0,1,1-1.892,1.9L7.93,3.236l-5.64,5.7A1.341,1.341,0,0,1,.391,8.924Z" transform="translate(22.386 15.994) rotate(180)" fill="#d6e33b"/>
        <path id="Path_8" data-name="Path 8" d="M14.465,28.93A14.465,14.465,0,1,0,0,14.465,14.463,14.463,0,0,0,14.465,28.93Zm0-2.225A12.235,12.235,0,0,1,5.814,5.814a12.235,12.235,0,1,1,17.3,17.3A12.134,12.134,0,0,1,14.465,26.7Z" fill="#d6e33b"/>
      </g>
    </g>
  </g>
</svg>
