<svg xmlns="http://www.w3.org/2000/svg" width="29" height="29" viewBox="0 0 29 29">
  <g id="Group_10" data-name="Group 10" transform="translate(-6504 -1926)">
    <g id="Ellipse_1" data-name="Ellipse 1" transform="translate(6504 1926)" fill="none" stroke="#d6e33b" stroke-width="1.25">
      <circle cx="14.5" cy="14.5" r="14.5" stroke="none"/>
      <circle cx="14.5" cy="14.5" r="13.875" fill="none"/>
    </g>
    <g id="instagram" transform="translate(6525.476 1933.042) rotate(90)">
      <path id="Path_18" data-name="Path 18" d="M14.362,4.1a5.1,5.1,0,0,0-.324-1.692A3.574,3.574,0,0,0,12,.368,5.111,5.111,0,0,0,10.3.044C9.557.008,9.32,0,7.426,0S5.295.008,4.551.041A5.1,5.1,0,0,0,2.858.365a3.4,3.4,0,0,0-1.237.807,3.435,3.435,0,0,0-.8,1.235A5.111,5.111,0,0,0,.493,4.1c-.035.747-.044.984-.044,2.878S.457,9.108.49,9.852a5.1,5.1,0,0,0,.324,1.692,3.573,3.573,0,0,0,2.041,2.041,5.111,5.111,0,0,0,1.692.324c.744.033.981.041,2.875.041s2.131-.008,2.875-.041a5.1,5.1,0,0,0,1.692-.324,3.568,3.568,0,0,0,2.041-2.041,5.115,5.115,0,0,0,.324-1.692c.033-.744.041-.981.041-2.875S14.395,4.846,14.362,4.1ZM13.106,9.8a3.824,3.824,0,0,1-.24,1.295,2.314,2.314,0,0,1-1.325,1.325,3.837,3.837,0,0,1-1.295.24c-.736.033-.957.041-2.818.041s-2.085-.008-2.818-.041a3.822,3.822,0,0,1-1.295-.24,2.147,2.147,0,0,1-.8-.521,2.169,2.169,0,0,1-.521-.8A3.838,3.838,0,0,1,1.755,9.8c-.033-.736-.041-.957-.041-2.818s.008-2.085.041-2.818a3.822,3.822,0,0,1,.24-1.295,2.12,2.12,0,0,1,.523-.8,2.166,2.166,0,0,1,.8-.52,3.84,3.84,0,0,1,1.295-.24c.736-.033.957-.041,2.818-.041s2.085.008,2.818.041a3.824,3.824,0,0,1,1.295.24,2.145,2.145,0,0,1,.8.52,2.168,2.168,0,0,1,.521.8,3.839,3.839,0,0,1,.24,1.295c.033.736.041.957.041,2.818S13.138,9.062,13.106,9.8Zm0,0" transform="translate(0 0)" fill="#d6e33b"/>
      <path id="Path_19" data-name="Path 19" d="M128.533,124.5a3.584,3.584,0,1,0,3.584,3.584A3.585,3.585,0,0,0,128.533,124.5Zm0,5.909a2.325,2.325,0,1,1,2.325-2.325A2.325,2.325,0,0,1,128.533,130.409Zm0,0" transform="translate(-121.107 -121.107)" fill="#d6e33b"/>
      <path id="Path_20" data-name="Path 20" d="M364.123,89.438a.837.837,0,1,1-.837-.837A.837.837,0,0,1,364.123,89.438Zm0,0" transform="translate(-352.134 -86.187)" fill="#d6e33b"/>
    </g>
  </g>
</svg>
