<svg xmlns="http://www.w3.org/2000/svg" width="37.831" height="37.831" viewBox="0 0 37.831 37.831">
  <g id="Group_10" data-name="Group 10" transform="translate(-1093 144.334)">
    <g id="Icon_ionic-ios-arrow-dropup" data-name="Icon ionic-ios-arrow-dropup" transform="translate(1093 -144.334)">
      <g id="Icon_ionic-ios-arrow-dropup-2" data-name="Icon ionic-ios-arrow-dropup" transform="translate(0 37.831) rotate(-90)">
        <path id="Path_7" data-name="Path 7" d="M.512,11.67a1.762,1.762,0,0,1,0-2.483L9.214.512A1.753,1.753,0,0,1,11.633.457l8.576,8.548a1.752,1.752,0,1,1-2.474,2.483L10.369,4.231,2.994,11.679A1.754,1.754,0,0,1,.512,11.67Z" transform="translate(8.546 11.365)" fill="#d6e33b"/>
        <path id="Path_8" data-name="Path 8" d="M18.915,37.831A18.915,18.915,0,1,0,0,18.915,18.912,18.912,0,0,0,18.915,37.831Zm0-2.91A16,16,0,0,1,7.6,7.6,16,16,0,1,1,30.228,30.228,15.868,15.868,0,0,1,18.915,34.921Z" transform="translate(0)" fill="#d6e33b"/>
      </g>
    </g>
  </g>
</svg>
