<svg xmlns="http://www.w3.org/2000/svg" width="29" height="29" viewBox="0 0 29 29">
  <g id="Group_9" data-name="Group 9" transform="translate(-6504 -1959)">
    <g id="Ellipse_2" data-name="Ellipse 2" transform="translate(6504 1959)" fill="none" stroke="#d6e33b" stroke-width="1.25">
      <circle cx="14.5" cy="14.5" r="14.5" stroke="none"/>
      <circle cx="14.5" cy="14.5" r="13.875" fill="none"/>
    </g>
    <path id="twitter" d="M14.838,1.622c-.933.043-.913.04-1.019.048L14.372.092S12.647.727,12.209.84A3.462,3.462,0,0,0,8.132.512a2.824,2.824,0,0,0-1.357,2.9A7.532,7.532,0,0,1,1.9.669L1.486.177,1.18.739A3.394,3.394,0,0,0,.819,3.024a3.283,3.283,0,0,0,.318.892L.786,3.78l-.042.587a3.131,3.131,0,0,0,.531,1.861,3.309,3.309,0,0,0,.414.51L1.507,6.71l.221.672a3.268,3.268,0,0,0,1.68,1.947c-.783.332-1.416.545-2.457.887L0,10.529l.879.481a9.228,9.228,0,0,0,2.69.979c2.6.408,5.53.076,7.5-1.7a7.061,7.061,0,0,0,2.093-5.838,1.383,1.383,0,0,1,.259-.9C13.791,3.058,14.836,1.626,14.838,1.622ZM12.727,3.029A2.253,2.253,0,0,0,12.3,4.5,6.145,6.145,0,0,1,10.49,9.643C8.957,11.024,6.483,11.566,3.7,11.13A6.73,6.73,0,0,1,2.25,10.7,23.056,23.056,0,0,0,4.883,9.616L6.4,8.9,4.725,8.79A2.371,2.371,0,0,1,2.842,7.717a3.007,3.007,0,0,0,.638-.106l1.6-.445L3.467,6.77A2.4,2.4,0,0,1,2,5.75a2.459,2.459,0,0,1-.318-.7,4.025,4.025,0,0,0,.654.1L3.829,5.3,2.647,4.378A2.489,2.489,0,0,1,1.7,1.756,8.65,8.65,0,0,0,7.8,4.379a5.148,5.148,0,0,0-.089-.737,2,2,0,0,1,.877-2.39,2.6,2.6,0,0,1,3.063.254.778.778,0,0,0,.714.191,6.008,6.008,0,0,0,.588-.179l-.375,1.071h.479Zm0,0" transform="translate(6511.081 1968.427)" fill="#d6e33b"/>
  </g>
</svg>
