<svg xmlns="http://www.w3.org/2000/svg" width="29" height="29" viewBox="0 0 29 29">
  <g id="Group_8" data-name="Group 8" transform="translate(-6541 -1959)">
    <g id="Ellipse_3" data-name="Ellipse 3" transform="translate(6541 1959)" fill="none" stroke="#d6e33b" stroke-width="1.25">
      <circle cx="14.5" cy="14.5" r="14.5" stroke="none"/>
      <circle cx="14.5" cy="14.5" r="13.875" fill="none"/>
    </g>
    <g id="youtube" transform="translate(6547.11 1964.309)">
      <path id="Path_21" data-name="Path 21" d="M9.594,7.824a.523.523,0,0,0-.789.448v4.873a.523.523,0,0,0,.789.449l4.086-2.433a.523.523,0,0,0,0-.9Zm.255,4.4V9.192l2.545,1.52Z" transform="translate(-2.675 -1.518)" fill="#d6e33b"/>
      <path id="Path_22" data-name="Path 22" d="M13.857,3.114a42.143,42.143,0,0,0-11.006,0A3.044,3.044,0,0,0,.311,5.645a20.355,20.355,0,0,0,0,7.092,3.044,3.044,0,0,0,2.54,2.531,38.889,38.889,0,0,0,5.51.361,38.653,38.653,0,0,0,5.5-.361,3.046,3.046,0,0,0,2.54-2.531,20.363,20.363,0,0,0,0-7.093,3.044,3.044,0,0,0-2.54-2.531Zm1.511,9.45A2,2,0,0,1,13.7,14.235a40.986,40.986,0,0,1-10.7,0A2,2,0,0,1,1.34,12.563a19.119,19.119,0,0,1,0-6.744A2.005,2.005,0,0,1,3.006,4.146,37.821,37.821,0,0,1,8.354,3.8a37.828,37.828,0,0,1,5.35.35,2,2,0,0,1,1.665,1.672,19.123,19.123,0,0,1,0,6.745Z" transform="translate(0 0)" fill="#d6e33b"/>
    </g>
  </g>
</svg>
